<?xml version="1.0" encoding="UTF-8" standalone="no"?>
<svg
   xmlns:dc="http://purl.org/dc/elements/1.1/"
   xmlns:cc="http://creativecommons.org/ns#"
   xmlns:rdf="http://www.w3.org/1999/02/22-rdf-syntax-ns#"
   xmlns:svg="http://www.w3.org/2000/svg"
   xmlns="http://www.w3.org/2000/svg"
   xmlns:sodipodi="http://sodipodi.sourceforge.net/DTD/sodipodi-0.dtd"
   xmlns:inkscape="http://www.inkscape.org/namespaces/inkscape"
   version="1.2"
   width="50"
   height="50"
   viewBox="0 0 50 50"
   overflow="inherit"
   id="svg3719"
   sodipodi:docname="atm.svg"
   inkscape:version="0.92.2 (5c3e80d, 2017-08-06)">
  <metadata
     id="metadata3725">
    <rdf:RDF>
      <cc:Work
         rdf:about="">
        <dc:format>image/svg+xml</dc:format>
        <dc:type
           rdf:resource="http://purl.org/dc/dcmitype/StillImage" />
        <dc:title></dc:title>
      </cc:Work>
    </rdf:RDF>
  </metadata>
  <defs
     id="defs3723" />
  <sodipodi:namedview
     pagecolor="#ffffff"
     bordercolor="#666666"
     borderopacity="1"
     objecttolerance="10"
     gridtolerance="10"
     guidetolerance="10"
     inkscape:pageopacity="0"
     inkscape:pageshadow="2"
     inkscape:window-width="1748"
     inkscape:window-height="1253"
     id="namedview3721"
     showgrid="false"
     inkscape:zoom="15.457354"
     inkscape:cx="25.948571"
     inkscape:cy="25.303303"
     inkscape:window-x="144"
     inkscape:window-y="60"
     inkscape:window-maximized="0"
     inkscape:current-layer="svg3719" />
  <path
     d="M41.405 21.888l-2.459-10.266c-.431-1.791-2.246-2.916-4.047-2.474-1.584.387-2.354 1.484-2.666 2.256-.369.911-2.016 5.039-2.401 5.892-.135.296-.42.452-.478.478-.327.145-3.6 1.526-3.6 1.526v.006c-.646.303-1.094.949-1.094 1.703 0 1.043.854 1.889 1.907 1.889.227 0 .443-.047.646-.119v.007l4.345-1.806c.596-.278.887-.63 1.183-1.143.124-.216.501-1.12.808-1.862l2.622 10.965-.003 16.99c-.005 1.688 1.161 3.064 2.865 3.07 1.706.006 2.939-1.357 2.95-3.048 0 0 .017-19.107.017-20.053-.002-.943-.377-3.184-.595-4.011z"
     id="path3713" />
  <ellipse
     cx="31.899"
     cy="4.82"
     rx="3.855"
     ry="3.82"
     id="ellipse3715" />
  <path
     d="M17.131 37.102v4.28c.555-.102 1.004-.356 1.353-.763.346-.407.519-.883.519-1.431 0-.49-.145-.913-.435-1.269-.294-.352-.773-.624-1.437-.817zm-2.644-6.647c-.26.35-.391.738-.391 1.162 0 .39.119.748.354 1.08.238.334.597.604 1.074.808v-3.797c-.435.146-.782.396-1.037.747zm10.17-5.084h.004l-5.975-11.987-.001.011c-.439-.908-1.371-1.535-2.455-1.535h-5.507c-1.503-.001-2.723 1.207-2.723 2.697v34.443h16.966v-22.277c-.002-.484-.113-.942-.309-1.352zm-4.152 16.769c-.81.907-1.934 1.463-3.371 1.667v2.053h-1.607v-1.998c-1.278-.153-2.313-.626-3.113-1.415-.796-.791-1.305-1.906-1.526-3.347l2.89-.309c.117.586.338 1.091.665 1.517.323.424.685.731 1.083.921v-4.598c-1.446-.41-2.509-1.031-3.182-1.858-.677-.83-1.015-1.837-1.015-3.023 0-1.2.381-2.208 1.148-3.025.764-.815 1.78-1.286 3.05-1.409v-1.087h1.607v1.087c1.172.138 2.107.535 2.801 1.189.692.653 1.135 1.532 1.328 2.629l-2.801.362c-.171-.862-.613-1.449-1.328-1.756v4.29c1.771.477 2.978 1.093 3.621 1.849.641.758.963 1.729.963 2.914 0 1.324-.404 2.439-1.213 3.347z"
     id="path3717" />
  <path
     style="fill:#ff6600;stroke-width:0.04574566;stroke:#000000;stroke-opacity:1"
     d="m 8.0380544,31.580512 c 4.717e-4,-15.133295 0.00931,-17.450656 0.067411,-17.669259 0.2299186,-0.865101 0.869799,-1.558401 1.7421028,-1.887541 0.2703948,-0.102026 0.2830248,-0.102441 3.5124638,-0.115301 3.573032,-0.01423 3.497704,-0.01923 4.101084,0.272645 0.207785,0.100513 0.41102,0.256965 0.674742,0.519419 l 0.377396,0.375581 3.111713,6.254365 c 1.723807,3.464755 3.157045,6.400421 3.213349,6.581826 l 0.101636,0.32746 0.01252,11.379232 0.01252,11.379231 h -8.46374 -8.4637408 z m 9.1028426,13.279749 v -1.027204 l 0.171546,-0.0291 c 0.359182,-0.06094 1.09881,-0.269228 1.40645,-0.396073 1.57462,-0.649243 2.640593,-1.96022 2.930937,-3.604585 0.08215,-0.465252 0.09096,-1.445724 0.01725,-1.919323 -0.0292,-0.187604 -0.102351,-0.492013 -0.162562,-0.676464 C 21.03512,35.76955 20.041525,34.950386 17.91506,34.248199 l -0.751293,-0.248086 -0.01189,-2.107557 c -0.0065,-1.159155 0.0049,-2.107556 0.02535,-2.107556 0.06782,0 0.44147,0.26008 0.597366,0.415795 0.08435,0.08425 0.216033,0.24427 0.292622,0.355589 0.140837,0.204698 0.351819,0.736292 0.353593,0.890917 8.19e-4,0.07151 0.0266,0.07991 0.172511,0.05622 0.09435,-0.01532 0.655307,-0.08897 1.246569,-0.163663 1.507574,-0.190459 1.418115,-0.171801 1.418115,-0.295761 0,-0.343721 -0.423593,-1.426457 -0.738842,-1.888535 -0.638974,-0.936582 -1.762866,-1.609372 -3.00646,-1.799745 L 17.140897,27.2989 v -0.541033 -0.541033 h -0.823422 -0.823422 v 0.538849 0.538849 l -0.372232,0.05857 c -1.074587,0.169086 -1.949466,0.622814 -2.662587,1.380866 -0.79186,0.841752 -1.132053,1.755996 -1.131552,3.040963 9.07e-4,2.326854 1.276267,3.936459 3.75466,4.738681 l 0.388838,0.125861 0.01187,2.271263 0.01187,2.271264 -0.193193,-0.106097 C 15.033488,40.928594 14.542718,40.433096 14.313115,40.077768 14.12499,39.786629 13.9551,39.393517 13.8375,38.977232 l -0.0589,-0.208495 -1.440988,0.155629 c -0.792544,0.0856 -1.449053,0.163467 -1.458911,0.173048 -0.03633,0.03531 0.146067,0.834161 0.292623,1.281574 0.61766,1.885607 1.97901,3.078503 3.91809,3.433262 l 0.404648,0.07403 v 1.000593 1.000592 h 0.823422 0.823422 z"
     id="path3727"
     inkscape:connector-curvature="0" />
  <path
     style="fill:#ff6600;stroke-width:0.04574566"
     d="m 15.14827,33.281747 c -0.836559,-0.501417 -1.199664,-1.355173 -0.939977,-2.210135 0.162875,-0.536231 0.686485,-1.118695 1.151333,-1.280741 l 0.134427,-0.04686 v 1.850319 c 0,1.017676 -0.01665,1.85032 -0.037,1.85032 -0.02035,0 -0.159303,-0.07331 -0.308783,-0.162901 z"
     id="path3729"
     inkscape:connector-curvature="0" />
  <path
     style="fill:#ff6600;stroke-width:0.04574566"
     d="m 17.140897,39.249387 v -2.10926 l 0.1258,0.02974 c 0.06919,0.01636 0.29536,0.110144 0.502599,0.208417 0.799782,0.379256 1.20314,0.985586 1.200308,1.80431 -0.0014,0.399182 -0.05721,0.650229 -0.217338,0.977248 -0.247027,0.504494 -0.726311,0.917032 -1.283459,1.104722 -0.153603,0.05174 -0.290221,0.09408 -0.303594,0.09408 -0.01337,0 -0.02432,-0.949167 -0.02432,-2.109259 z"
     id="path3731"
     inkscape:connector-curvature="0" />
  <path
     style="fill:#ff6600;stroke-width:0.04574566;stroke:#000000;stroke-opacity:1"
     d="m 38.6871,48.954045 c -0.651214,-0.09113 -1.166046,-0.342188 -1.601098,-0.780778 -0.50734,-0.511465 -0.780807,-1.09915 -0.868801,-1.867062 -0.02831,-0.247069 -0.0464,-3.611281 -0.04813,-8.950304 l -0.0028,-8.554437 -1.291817,-5.388833 c -0.710499,-2.963858 -1.308936,-5.388883 -1.32986,-5.388945 -0.02092,-4.6e-5 -0.178498,0.330358 -0.350164,0.734265 -0.171666,0.403907 -0.389751,0.882108 -0.484632,1.062668 -0.20928,0.398261 -0.561344,0.787241 -0.891259,0.984713 -0.290833,0.174079 -4.541089,1.943342 -4.851173,2.019408 -0.826822,0.202825 -1.768905,-0.275132 -2.125067,-1.078132 -0.341734,-0.770469 -0.09305,-1.692689 0.597099,-2.214306 0.146844,-0.110985 0.870053,-0.4424 2.131919,-0.976964 1.601107,-0.678277 1.936139,-0.83611 2.073392,-0.976771 0.192072,-0.196842 0.314171,-0.47757 1.683725,-3.871187 0.527558,-1.307235 1.030014,-2.51149 1.116569,-2.676121 0.457411,-0.870009 1.327569,-1.5432273 2.376564,-1.8386835 0.466777,-0.1314707 1.223433,-0.1413198 1.669716,-0.021734 0.696447,0.1866197 1.40843,0.6534192 1.813696,1.1891185 0.475346,0.628337 0.446181,0.527317 1.863946,6.456142 1.314542,5.497168 1.45675,6.132518 1.622898,7.250687 0.195224,1.313849 0.194389,1.258101 0.17991,12.008234 l -0.01393,10.338518 -0.101607,0.356838 c -0.244436,0.858456 -0.803603,1.55393 -1.525812,1.897756 -0.554265,0.263872 -1.109937,0.36055 -1.643314,0.28591 z"
     id="path3733"
     inkscape:connector-curvature="0" />
  <path
     style="fill:#ff6600;stroke-width:0.04574566;stroke:#000000;stroke-opacity:1"
     d="M 31.116194,8.5359071 C 29.930911,8.2699941 28.984101,7.5367127 28.467344,6.4844373 28.160952,5.8605293 28.099655,5.5854213 28.098885,4.8307411 28.0981,4.0617419 28.159174,3.7929183 28.483426,3.1381519 c 1.09816,-2.21752727 3.975777,-2.80119495 5.907459,-1.1982113 1.278231,1.0607245 1.693038,2.9551064 0.97768,4.4649656 -0.521607,1.1009181 -1.51296,1.8867836 -2.683654,2.1273847 -0.424429,0.087229 -1.188174,0.08899 -1.568717,0.00362 z"
     id="path3735"
     inkscape:connector-curvature="0" />
</svg>
