<?xml version="1.0" encoding="UTF-8" standalone="no"?>
<svg
   xmlns:osb="http://www.openswatchbook.org/uri/2009/osb"
   xmlns:dc="http://purl.org/dc/elements/1.1/"
   xmlns:cc="http://creativecommons.org/ns#"
   xmlns:rdf="http://www.w3.org/1999/02/22-rdf-syntax-ns#"
   xmlns:svg="http://www.w3.org/2000/svg"
   xmlns="http://www.w3.org/2000/svg"
   xmlns:sodipodi="http://sodipodi.sourceforge.net/DTD/sodipodi-0.dtd"
   xmlns:inkscape="http://www.inkscape.org/namespaces/inkscape"
   version="1.2"
   width="50"
   height="50"
   viewBox="0 0 50 50"
   overflow="inherit"
   id="svg827"
   sodipodi:docname="gym.svg"
   inkscape:version="0.92.2 (5c3e80d, 2017-08-06)">
  <metadata
     id="metadata833">
    <rdf:RDF>
      <cc:Work
         rdf:about="">
        <dc:format>image/svg+xml</dc:format>
        <dc:type
           rdf:resource="http://purl.org/dc/dcmitype/StillImage" />
      </cc:Work>
    </rdf:RDF>
  </metadata>
  <defs
     id="defs831">
    <linearGradient
       id="linearGradient2295"
       osb:paint="solid">
      <stop
         style="stop-color:#b1b1b1;stop-opacity:1;"
         offset="0"
         id="stop2293" />
    </linearGradient>
  </defs>
  <sodipodi:namedview
     pagecolor="#ffffff"
     bordercolor="#666666"
     borderopacity="1"
     objecttolerance="10"
     gridtolerance="10"
     guidetolerance="10"
     inkscape:pageopacity="0"
     inkscape:pageshadow="2"
     inkscape:window-width="2160"
     inkscape:window-height="1346"
     id="namedview829"
     showgrid="false"
     inkscape:zoom="21.86"
     inkscape:cx="25"
     inkscape:cy="25"
     inkscape:window-x="-11"
     inkscape:window-y="49"
     inkscape:window-maximized="1"
     inkscape:current-layer="svg827" />
  <path
     d="M17.962 44.874c.374.403.352 1.041-.05 1.416l-2.172 2.031c-.402.375-1.037.353-1.411-.051l-12.649-13.632c-.374-.403-.351-1.04.051-1.416l2.175-2.028c.402-.376 1.037-.353 1.411.051l12.645 13.629zm16.14-25.65c.374.403.351 1.041-.051 1.416l-13.67 12.77c-.402.375-1.037.353-1.411-.051l-3.263-3.521c-.374-.403-.351-1.041.051-1.416l13.667-12.77c.401-.375 1.036-.353 1.41.051l3.267 3.521zm-11.489 21.303c.374.403.351 1.04-.051 1.416l-2.175 2.03c-.402.376-1.037.353-1.411-.051l-12.642-13.632c-.374-.403-.352-1.041.05-1.416l2.171-2.029c.402-.375 1.037-.353 1.411.051l12.647 13.631zm21.063-20.814c.374.403.351 1.041-.052 1.416l-2.174 2.03c-.402.375-1.037.353-1.412-.05l-12.644-13.629c-.375-.403-.352-1.04.05-1.416l2.18-2.035c.401-.375 1.036-.353 1.41.051l12.642 13.633zm4.644-4.34c.374.403.351 1.041-.051 1.417l-2.17 2.029c-.401.376-1.036.353-1.41-.05l-12.642-13.635c-.374-.403-.352-1.041.05-1.417l2.172-2.033c.401-.376 1.035-.354 1.409.05l12.642 13.639z"
     id="path825"
     style="fill:#28170b;fill-opacity:1" />
</svg>
