<?xml version="1.0" encoding="UTF-8" standalone="no"?>
<svg
   xmlns:dc="http://purl.org/dc/elements/1.1/"
   xmlns:cc="http://creativecommons.org/ns#"
   xmlns:rdf="http://www.w3.org/1999/02/22-rdf-syntax-ns#"
   xmlns:svg="http://www.w3.org/2000/svg"
   xmlns="http://www.w3.org/2000/svg"
   xmlns:sodipodi="http://sodipodi.sourceforge.net/DTD/sodipodi-0.dtd"
   xmlns:inkscape="http://www.inkscape.org/namespaces/inkscape"
   version="1.2"
   width="50"
   height="50"
   viewBox="0 0 50 50"
   overflow="inherit"
   id="svg5684"
   sodipodi:docname="stadium.svg"
   inkscape:version="0.92.2 (5c3e80d, 2017-08-06)">
  <metadata
     id="metadata5690">
    <rdf:RDF>
      <cc:Work
         rdf:about="">
        <dc:format>image/svg+xml</dc:format>
        <dc:type
           rdf:resource="http://purl.org/dc/dcmitype/StillImage" />
      </cc:Work>
    </rdf:RDF>
  </metadata>
  <defs
     id="defs5688" />
  <sodipodi:namedview
     pagecolor="#ffffff"
     bordercolor="#666666"
     borderopacity="1"
     objecttolerance="10"
     gridtolerance="10"
     guidetolerance="10"
     inkscape:pageopacity="0"
     inkscape:pageshadow="2"
     inkscape:window-width="1454"
     inkscape:window-height="1144"
     id="namedview5686"
     showgrid="false"
     inkscape:zoom="4.72"
     inkscape:cx="25"
     inkscape:cy="25"
     inkscape:window-x="0"
     inkscape:window-y="60"
     inkscape:window-maximized="0"
     inkscape:current-layer="svg5684" />
  <path
     d="M34.438 17.552c3.498 0 6.346-2.801 6.346-6.271 0-3.469-2.847-6.281-6.346-6.281-3.512 0-6.365 2.812-6.365 6.281 0 3.47 2.854 6.271 6.365 6.271zm14.562 15.305v-7.94l-8.565-4.817c-1.451-.728-3.064-.975-4.676-.635-.66.135-1.281.387-1.979.771-.076.021-2.619 1.13-4.097 4.541l-5.898 11.733s-5.811 1.113-8.243 1.577l-.595.351-1.505-5.381c-.623-2.188 1.701-5.36 1.788-5.489 1.538-2.225 1.959-5.156 1.151-8.059-.736-2.625-2.412-4.838-4.594-6.083-1.707-.959-3.626-1.223-5.368-.749-1.353.367-2.559 1.154-3.491 2.285l-.721 1.05c-1.254 2.183-1.543 4.919-.818 7.558.736 2.65 2.393 4.854 4.586 6.082l.525.275c.07.005 3.682 1.461 4.31 3.55-.008.011.948 3.427 1.728 6.211l-.594.27.116.077c-.176.269-.485.865-.463 1.475 0 .194.016.388.053.576.333 1.725 2.042 2.877 3.788 2.526l11.145-2.144s.948-.285 1.354-.571c.523-.367.917-1.137.917-1.137l2.929-5.823s2.019 9.41 2.058 9.584l-.465.479h15.203l-.381-2.203c0-.022-.479-2.111-.479-2.111.016.015-1.304-5.862-2.313-10.462 1.608.92 3.065 1.738 3.146 1.782l.448.851zm-38.313-4.826c-1.129.3-2.335.118-3.491-.519-1.61-.9-2.854-2.575-3.387-4.596-.568-2.014-.361-4.077.556-5.667l.512-.738c.604-.733 1.336-1.223 2.214-1.466 2.804-.753 5.892 1.541 6.89 5.124.983 3.567-.489 7.107-3.294 7.862z"
     id="path5682"
     style="fill:#6c535d" />
</svg>
